<svg width="900" height="1125" viewBox="0 0 900 1125" fill="none" xmlns="http://www.w3.org/2000/svg">
  <rect width="900" height="1125" fill="#070707"/>
  <circle cx="134" cy="148" r="260" fill="#FF4D2D" fill-opacity=".34"/>
  <circle cx="770" cy="992" r="300" fill="#D8B15F" fill-opacity=".22"/>
  <path d="M0 793C162 684 305 653 429 700c124 47 282 24 471-68v493H0V793Z" fill="#111"/>
  <path d="M147 714c92-57 176-85 252-85 101 0 174 49 269 49 45 0 89-9 132-28" stroke="#FF4D2D" stroke-width="12" stroke-linecap="round"/>
  <path d="M147 759c92-57 176-85 252-85 101 0 174 49 269 49 45 0 89-9 132-28" stroke="#D8B15F" stroke-width="8" stroke-linecap="round"/>
  <rect x="86" y="80" width="728" height="965" rx="44" stroke="white" stroke-opacity=".14" stroke-width="2"/>
  <text x="88" y="182" fill="white" fill-opacity=".58" font-family="Inter, Arial, sans-serif" font-size="28" font-weight="800" letter-spacing="8">LINCON CLASS</text>
  <text x="82" y="500" fill="white" font-family="Inter, Arial, sans-serif" font-size="152" font-weight="900">LC</text>
  <text x="98" y="912" fill="white" font-family="Inter, Arial, sans-serif" font-size="62" font-weight="900">MUSICA</text>
  <text x="100" y="970" fill="white" fill-opacity=".6" font-family="Inter, Arial, sans-serif" font-size="24" font-weight="700" letter-spacing="5">URBANA • SHOWS • COLLABS</text>
</svg>
